<svg width="120" height="120" viewBox="0 0 120 120" fill="none" xmlns="http://www.w3.org/2000/svg">
<path fill-rule="evenodd" clip-rule="evenodd" d="M60 120C93.1371 120 120 93.1371 120 60C120 26.8629 93.1371 0 60 0C26.8629 0 0 26.8629 0 60C0 93.1371 26.8629 120 60 120ZM55.5785 22.2413C55.5458 22.2344 55.5131 22.2276 55.4804 22.2209C48.752 20.8463 42.161 25.0794 40.7589 31.6757L29.6432 83.9708C28.2264 90.6362 32.5571 97.1746 39.3443 98.6172C39.3769 98.6242 39.4096 98.631 39.4424 98.6377C46.1707 100.012 52.7618 95.7792 54.1639 89.1829L65.2795 36.8878C66.6963 30.2224 62.3656 23.684 55.5785 22.2413ZM63.9741 72.4031C65.7725 72.8446 67.6526 73.0787 69.5874 73.0787C82.5242 73.0787 93.0115 62.6115 93.0115 49.6995C93.0115 37.6669 84.3938 29.0297 67.3292 24.8077C70.7369 27.8044 72.4666 32.4493 71.4665 37.1544L63.9741 72.4031Z" fill="#FF5A60"/>
</svg>
