<svg width="720" height="720" viewBox="0 0 720 720" fill="none" xmlns="http://www.w3.org/2000/svg">
<path fill-rule="evenodd" clip-rule="evenodd" d="M653.037 505.471C651.435 540.571 645.571 559.633 640.641 572.318C634.11 589.122 626.309 601.114 613.711 613.711C601.114 626.309 589.122 634.11 572.318 640.641C559.633 645.571 540.571 651.435 505.471 653.037C467.516 654.768 456.131 655.135 360 655.135C263.87 655.135 252.485 654.768 214.53 653.037C179.43 651.435 160.369 645.571 147.683 640.641C130.88 634.11 118.887 626.309 106.29 613.711C93.6928 601.114 85.8895 589.122 79.3603 572.318C74.43 559.633 68.5659 540.571 66.9642 505.471C65.2317 467.511 64.8661 456.124 64.8661 360C64.8661 263.876 65.2317 252.491 66.9642 214.529C68.5659 179.43 74.43 160.369 79.3603 147.683C85.8895 130.878 93.6928 118.886 106.289 106.29C118.887 93.6914 130.88 85.8895 147.683 79.3603C160.369 74.43 179.43 68.5659 214.529 66.9642C252.491 65.2317 263.876 64.8647 360 64.8647C456.124 64.8647 467.511 65.2317 505.471 66.9642C540.571 68.5659 559.633 74.43 572.318 79.3603C589.122 85.8895 601.114 93.6914 613.711 106.289C626.309 118.886 634.11 130.878 640.641 147.683C645.571 160.369 651.435 179.43 653.037 214.529C654.77 252.491 655.135 263.876 655.135 360C655.135 456.124 654.77 467.511 653.037 505.471ZM717.834 211.573C716.086 173.254 710 147.085 701.101 124.186C691.902 100.513 679.591 80.4361 659.578 60.4223C639.564 40.4086 619.487 28.0997 595.814 18.9C572.915 9.99984 546.747 3.915 508.428 2.16563C470.031 0.414844 457.771 0 360 0C262.23 0 249.971 0.414844 211.573 2.16563C173.254 3.915 147.087 9.99984 124.186 18.9C100.513 28.0997 80.4375 40.4086 60.4223 60.4223C40.41 80.4361 28.0997 100.513 18.9 124.186C10.0012 147.085 3.915 173.254 2.16703 211.573C0.414844 249.971 0 262.23 0 360C0 457.771 0.414844 470.031 2.16703 508.428C3.915 546.746 10.0012 572.915 18.9 595.814C28.0997 619.487 40.41 639.564 60.4223 659.578C80.4375 679.591 100.513 691.9 124.186 701.101C147.087 710 173.254 716.086 211.573 717.834C249.971 719.587 262.23 720 360 720C457.771 720 470.031 719.587 508.428 717.834C546.747 716.086 572.915 710 595.814 701.101C619.487 691.9 639.564 679.591 659.578 659.578C679.591 639.564 691.902 619.487 701.101 595.814C710 572.915 716.086 546.746 717.834 508.428C719.587 470.031 720 457.771 720 360C720 262.23 719.587 249.971 717.834 211.573Z" fill="#FAFAFA"/>
<path fill-rule="evenodd" clip-rule="evenodd" d="M360 480C293.727 480 240.001 426.275 240.001 360.001C240.001 293.726 293.727 240 360 240C426.274 240 480 293.726 480 360.001C480 426.275 426.274 480 360 480ZM360 175.135C257.902 175.135 175.136 257.903 175.136 360.001C175.136 462.099 257.902 544.865 360 544.865C462.098 544.865 544.865 462.099 544.865 360.001C544.865 257.903 462.098 175.135 360 175.135Z" fill="#FAFAFA"/>
<path fill-rule="evenodd" clip-rule="evenodd" d="M552.169 124.631C528.311 124.631 508.969 143.973 508.969 167.831C508.969 191.69 528.311 211.031 552.169 211.031C576.028 211.031 595.369 191.69 595.369 167.831C595.369 143.973 576.028 124.631 552.169 124.631Z" fill="#FAFAFA"/>
</svg>
